<svg width="96" height="20" viewBox="0 0 96 20" fill="none" xmlns="http://www.w3.org/2000/svg">
<path d="M15.6132 18.0528C11.1672 18.0528 7.56407 14.4478 7.56407 10.001C7.56407 5.55391 11.1672 1.95231 15.6132 1.95231C17.1803 1.95231 18.6433 2.39923 19.8793 3.17392L15.6132 10.001L23.6445 5.36361C22.7719 3.97334 21.5204 2.7754 20.0072 1.86636C18.0815 0.713483 15.4028 0 12.4408 0C8.21563 0 4.50885 1.53538 2.44167 3.83469C0.911188 5.53442 0 7.67368 0 10.0008C0 12.3297 0.911188 14.4705 2.44167 16.1714C4.51422 18.4736 8.16579 20 12.3213 20C16.4762 20 20.1267 18.4724 22.2006 16.1714C22.3141 16.0447 22.4241 15.9168 22.5281 15.7841L22.2149 14.6103C20.7578 16.6902 18.3445 18.0528 15.6132 18.0528Z" fill="#787878"/>
<path d="M42.24 19.5159L38.8692 6.94123C38.3277 4.90919 36.4774 3.41565 34.2744 3.41565C33.7031 3.41565 33.1556 3.51773 32.6476 3.70252L25.3908 6.3413H32.8544L34.1298 11.1044C32.8926 10.0396 31.2814 9.39174 29.5171 9.39174C26.0136 9.39174 23.1771 11.7395 23.1771 14.6355C23.1771 17.5317 26.0136 19.8829 29.5171 19.8829C32.0392 19.8829 34.2696 18.6481 35.6454 16.7512L36.3853 19.5159H42.24ZM31.9579 17.5628C30.3418 17.5628 29.0318 16.2539 29.0318 14.6355C29.0318 13.0194 30.3418 11.7093 31.9579 11.7093C33.574 11.7093 34.8852 13.0194 34.8852 14.6355C34.8852 16.2539 33.574 17.5628 31.9579 17.5628Z" fill="#787878"/>
<path d="M55.9837 3.41779C55.5415 3.41779 55.1231 3.51556 54.7502 3.69068L50.0908 5.86208C49.8602 4.47504 48.6553 3.41779 47.2018 3.41779C46.7619 3.41779 46.3423 3.51556 45.9646 3.69068L40.2761 6.34129H44.2756V19.516H50.1303V7.80698C50.1303 6.99907 50.7841 6.3414 51.5946 6.3414C52.4002 6.3414 53.0588 6.99907 53.0588 7.80698V19.516H58.9111V6.34129C58.9111 4.72558 57.5998 3.41791 55.9837 3.41791" fill="#787878"/>
<path d="M77.9357 11.7092C77.9357 16.2886 74.2242 20 69.6462 20C65.0645 20 61.3507 16.2886 61.3507 11.7092C61.3507 7.13103 65.0645 3.41779 69.6462 3.41779C74.2242 3.41779 77.9357 7.13115 77.9357 11.7092ZM69.9892 5.93416C69.7287 4.95855 68.7258 4.37942 67.7504 4.64167C66.7762 4.90284 66.1941 5.90631 66.4559 6.88181L69.2995 17.4839C69.5625 18.4605 70.563 19.039 71.5384 18.7808C72.5137 18.5166 73.0935 17.5138 72.8317 16.5384L69.9892 5.93416Z" fill="#787878"/>
<path d="M92.699 3.41779C92.2556 3.41779 91.8348 3.51556 91.4559 3.69068L86.8013 5.86208C86.5718 4.47504 85.367 3.41779 83.9135 3.41779C83.4736 3.41779 83.054 3.51556 82.6751 3.69068L76.989 6.34129H80.9873V19.516H86.8408V7.80698C86.8408 6.99907 87.4958 6.3414 88.3062 6.3414C89.1143 6.3414 89.7681 6.99907 89.7681 7.80698V19.516H95.6252V6.34129C95.6252 4.72558 94.3127 3.41791 92.699 3.41791" fill="#787878"/>
</svg>
