<svg width="98" height="32" viewBox="0 0 98 32" fill="none" xmlns="http://www.w3.org/2000/svg">
<path d="M41.6007 16.84C41.6007 21.4439 37.9991 24.8364 33.5791 24.8364C29.1591 24.8364 25.5574 21.4439 25.5574 16.84C25.5574 12.2037 29.1591 8.84363 33.5791 8.84363C37.9991 8.84363 41.6007 12.2037 41.6007 16.84ZM38.0892 16.84C38.0892 13.9631 36.0018 11.9946 33.5791 11.9946C31.1564 11.9946 29.0689 13.9631 29.0689 16.84C29.0689 19.6882 31.1564 21.6854 33.5791 21.6854C36.0018 21.6854 38.0892 19.6845 38.0892 16.84Z" fill="#787878"/>
<path d="M58.9058 16.84C58.9058 21.4439 55.3042 24.8364 50.8842 24.8364C46.4642 24.8364 42.8625 21.4439 42.8625 16.84C42.8625 12.2073 46.4642 8.84363 50.8842 8.84363C55.3042 8.84363 58.9058 12.2037 58.9058 16.84ZM55.3943 16.84C55.3943 13.9631 53.3069 11.9946 50.8842 11.9946C48.4615 11.9946 46.374 13.9631 46.374 16.84C46.374 19.6882 48.4615 21.6854 50.8842 21.6854C53.3069 21.6854 55.3943 19.6845 55.3943 16.84Z" fill="#787878"/>
<path d="M75.4899 9.32673V23.6827C75.4899 29.5881 72.0072 32 67.89 32C64.0144 32 61.6818 29.4078 60.8022 27.288L63.8594 26.0153C64.4038 27.3168 65.7377 28.8526 67.8864 28.8526C70.5219 28.8526 72.155 27.2267 72.155 24.1658V23.0158H72.0324C71.2465 23.9856 69.7323 24.8328 67.8215 24.8328C63.8233 24.8328 60.1604 21.3502 60.1604 16.8689C60.1604 12.3551 63.8233 8.84363 67.8215 8.84363C69.7287 8.84363 71.2429 9.69086 72.0324 10.6318H72.155V9.33033H75.4899V9.32673ZM72.4038 16.8689C72.4038 14.0532 70.5255 11.9946 68.1352 11.9946C65.7125 11.9946 63.6827 14.0532 63.6827 16.8689C63.6827 19.6557 65.7125 21.6854 68.1352 21.6854C70.5255 21.6854 72.4038 19.6557 72.4038 16.8689Z" fill="#787878"/>
<path d="M80.9878 0.912109V24.3461H77.5629V0.912109H80.9878Z" fill="#787878"/>
<path d="M94.3344 19.4718L97.0599 21.2889C96.1803 22.5904 94.0604 24.8328 90.3975 24.8328C85.8549 24.8328 82.4624 21.3213 82.4624 16.8364C82.4624 12.0811 85.8837 8.84003 90.0045 8.84003C94.1541 8.84003 96.1839 12.1424 96.8472 13.927L97.2114 14.8355L86.5219 19.2627C87.3402 20.8671 88.6129 21.6855 90.3975 21.6855C92.1857 21.6855 93.4259 20.8058 94.3344 19.4718ZM85.945 16.5949L93.0906 13.6278C92.6976 12.6291 91.5151 11.9333 90.1235 11.9333C88.3389 11.9333 85.8549 13.5088 85.945 16.5949Z" fill="#787878"/>
<path d="M12.5931 14.7598V11.3673H24.0252C24.137 11.9585 24.1947 12.658 24.1947 13.4151C24.1947 15.9603 23.4989 19.1077 21.2564 21.3502C19.0753 23.6215 16.2884 24.8328 12.5967 24.8328C5.75394 24.8328 0 19.2591 0 12.4164C0 5.57368 5.75394 0 12.5967 0C16.3822 0 19.0789 1.48535 21.105 3.42136L18.7111 5.81523C17.2582 4.45246 15.2898 3.39252 12.5931 3.39252C7.59622 3.39252 3.68815 7.41956 3.68815 12.4164C3.68815 17.4132 7.59622 21.4403 12.5931 21.4403C15.8342 21.4403 17.68 20.1388 18.8626 18.9563C19.8215 17.9973 20.4525 16.6273 20.7012 14.7562L12.5931 14.7598Z" fill="#787878"/>
</svg>
