<svg width="130" height="31" viewBox="0 0 130 31" fill="none" xmlns="http://www.w3.org/2000/svg">
<path fill-rule="evenodd" clip-rule="evenodd" d="M73.5117 20.4873C73.5117 20.7452 73.4876 21.0129 73.4203 21.2444C73.1358 22.2128 72.1581 23.0331 70.9376 23.0331C69.9211 23.0331 69.1093 22.4377 69.1093 21.1813C69.1093 19.2595 71.1686 18.7287 73.5117 18.7415V20.4873ZM77.1857 17.1393C77.1857 13.9687 75.8679 11.18 71.418 11.18C69.1342 11.18 67.3191 11.8394 66.3297 12.4266L67.0537 14.9747C67.9583 14.3874 69.4004 13.9017 70.7642 13.9017C73.0225 13.8965 73.3918 15.2168 73.3918 16.0626V16.2626C68.4694 16.2543 65.36 18.0062 65.36 21.576C65.36 23.7564 66.9447 25.8 69.6973 25.8C71.3924 25.8 72.8082 25.1045 73.6565 23.9918H73.7421C73.7421 23.9918 74.303 26.4075 77.4 25.485C77.2391 24.4782 77.1857 23.4038 77.1857 22.1136V17.1393Z" fill="#787878"/>
<path fill-rule="evenodd" clip-rule="evenodd" d="M0 7.73999C0 7.73999 3.19137 20.7452 3.70089 22.8563C4.29532 25.3204 5.36661 26.2262 8.45565 25.6163L10.448 17.5529C10.9539 15.5486 11.2921 14.1217 11.6165 12.0842H11.6739C11.901 14.1426 12.2269 15.5551 12.6428 17.5594C12.6428 17.5594 13.4535 21.2194 13.8694 23.1421C14.2868 25.0634 15.4452 26.276 18.4703 25.6163L23.22 7.73999H19.3856L17.7641 15.4685C17.3272 17.7175 16.9338 19.4764 16.6275 21.5348H16.5738C16.2958 19.4966 15.9445 17.8084 15.5003 15.6172L13.8128 7.73999H9.81653L8.01218 15.418C7.50048 17.7514 7.02218 19.6359 6.71734 21.6228H6.6629C6.35081 19.7513 5.93492 17.3833 5.4871 15.1249C5.4871 15.1249 4.4129 9.63386 4.03694 7.73999" fill="#787878"/>
<path fill-rule="evenodd" clip-rule="evenodd" d="M30.5097 20.4873C30.5097 20.7452 30.4885 21.0129 30.4183 21.2444C30.1339 22.2128 29.1577 23.0331 27.9372 23.0331C26.9186 23.0331 26.1098 22.4377 26.1098 21.1813C26.1098 19.2595 28.1676 18.7287 30.5097 18.7415V20.4873ZM34.1835 17.1393C34.1835 13.9687 32.8666 11.18 28.4169 11.18C26.131 11.18 24.3183 11.8394 23.3274 12.4266L24.0528 14.9747C24.9574 14.3874 26.3979 13.9017 27.7632 13.9017C30.022 13.8965 30.3913 15.2168 30.3913 16.0626V16.2626C25.4685 16.2543 22.36 18.0062 22.36 21.576C22.36 23.7564 23.9431 25.8 26.6956 25.8C28.3891 25.8 29.8063 25.1045 30.6553 23.9918H30.7379C30.7379 23.9918 31.301 26.4075 34.4 25.485C34.2362 24.4782 34.1835 23.4038 34.1835 22.1136V17.1393Z" fill="#787878"/>
<path fill-rule="evenodd" clip-rule="evenodd" d="M40.42 21.9649V7.73999H36.98V25.8H40.42" fill="#787878"/>
<path fill-rule="evenodd" clip-rule="evenodd" d="M89.44 7.73999V20.8431C89.44 22.6465 89.7885 23.9135 90.5372 24.6871C91.1886 25.3619 92.2636 25.8 93.5516 25.8C94.6496 25.8 95.7283 25.5978 96.2345 25.4135L96.1866 22.5948C95.8094 22.6852 95.3731 22.7576 94.7785 22.7576C93.517 22.7576 93.0941 21.9717 93.0941 20.3491V15.3384H96.32V11.9397H93.0941V7.73999" fill="#787878"/>
<path fill-rule="evenodd" clip-rule="evenodd" d="M79.98 12.3437V25.8H83.6635V18.9091C83.6635 18.5374 83.687 18.2127 83.7438 17.9161C84.018 16.4726 85.1012 15.5512 86.6588 15.5512C87.0857 15.5512 87.3918 15.5975 87.72 15.646V12.1231C87.4444 12.0653 87.2555 12.04 86.9095 12.04C85.533 12.04 83.969 12.9426 83.3126 14.8815H83.2118V12.3437" fill="#787878"/>
<path fill-rule="evenodd" clip-rule="evenodd" d="M43 12.3437V25.8H46.7577V17.9082C46.7577 17.5386 46.8008 17.1459 46.9346 16.8074C47.2468 16.0126 48.0063 15.0818 49.2178 15.0818C50.734 15.0818 51.4437 16.3287 51.4437 18.1309V25.8H55.197V17.8127C55.197 17.4598 55.2468 17.0353 55.3546 16.7214C55.6623 15.8174 56.4805 15.0818 57.6088 15.0818C59.1465 15.0818 59.8838 16.3084 59.8838 18.4267V25.8H63.64V17.8749C63.64 13.694 61.4586 12.04 58.9978 12.04C57.9068 12.04 57.0461 12.3054 56.2687 12.7704C55.614 13.1617 55.029 13.7157 54.517 14.4461H54.462C53.8674 12.9961 52.4709 12.04 50.65 12.04C48.3118 12.04 47.2616 13.1928 46.6225 14.172H46.5667V12.3437" fill="#787878"/>
<path fill-rule="evenodd" clip-rule="evenodd" d="M116.527 10.32C117.262 10.32 117.87 9.9465 117.952 9.46455L118.68 1.44299C118.68 0.650746 117.727 0 116.529 0C115.333 0 114.38 0.650746 114.38 1.44299L115.107 9.46455C115.187 9.9465 115.795 10.32 116.531 10.32" fill="#787878"/>
<path fill-rule="evenodd" clip-rule="evenodd" d="M111.55 12.8831C111.904 12.2162 111.876 11.4645 111.502 11.1322L104.987 6.16861C104.31 5.74457 103.294 6.2565 102.716 7.34281C102.14 8.4268 102.24 9.63878 102.917 10.0644L110.13 13.7119C110.584 13.8946 111.198 13.5446 111.552 12.88" fill="#787878"/>
<path fill-rule="evenodd" clip-rule="evenodd" d="M120.647 12.88C121.003 13.5445 121.615 13.8946 122.067 13.7119L129.283 10.0643C129.962 9.63873 130.059 8.42673 129.481 7.34272C128.905 6.25717 127.889 5.74447 127.211 6.16851L120.695 11.1321C120.323 11.4644 120.298 12.2161 120.649 12.883" fill="#787878"/>
<path fill-rule="evenodd" clip-rule="evenodd" d="M116.527 20.64C117.262 20.64 117.87 21.0135 117.952 21.4953L118.68 29.5158C118.68 30.3079 117.727 30.96 116.529 30.96C115.333 30.96 114.38 30.3079 114.38 29.5158L115.107 21.4953C115.187 21.0135 115.795 20.64 116.531 20.64" fill="#787878"/>
<path fill-rule="evenodd" clip-rule="evenodd" d="M120.647 17.2207C121.003 16.5531 121.615 16.2061 122.067 16.3881L129.283 20.0346C129.962 20.461 130.059 21.6729 129.481 22.7584C128.905 23.8415 127.889 24.3558 127.211 23.9317L120.695 18.9684C120.323 18.6346 120.298 17.8837 120.649 17.2176" fill="#787878"/>
<path fill-rule="evenodd" clip-rule="evenodd" d="M111.55 17.2186C111.904 17.8848 111.876 18.6351 111.502 18.9697L104.987 23.9314C104.31 24.3555 103.294 23.8435 102.716 22.7602C102.14 21.6745 102.24 20.4609 102.917 20.0345L110.13 16.389C110.584 16.2047 111.198 16.5532 111.552 17.221" fill="#787878"/>
</svg>
