<svg width="43" height="32" viewBox="0 0 43 32" fill="none" xmlns="http://www.w3.org/2000/svg">
<path d="M19.16 22.44C19.16 17.28 15.8 14.16 11.48 14.16C10.16 14.16 9.08 14.4 8.12 14.76C8.12 10.56 11.72 7.32 16.88 6.36V0.599992C7.28 1.8 0.56 9.6 0.56 19.68C0.56 26.88 4.64 31.44 10.28 31.44C15.56 31.44 19.16 27.72 19.16 22.44ZM42.92 22.44C42.92 17.28 39.44 14.16 35.12 14.16C33.8 14.16 32.72 14.4 31.76 14.88C31.76 10.56 35.48 7.32 40.64 6.36V0.599992C31.04 1.8 24.32 9.6 24.32 19.68C24.32 26.88 28.4 31.44 34.04 31.44C39.32 31.44 42.92 27.72 42.92 22.44Z" fill="#00CC61"/>
</svg>
