<svg width="67" height="76" viewBox="0 0 67 76" fill="none" xmlns="http://www.w3.org/2000/svg">
<path fill-rule="evenodd" clip-rule="evenodd" d="M6.725 33.3043V26.2609C6.725 14.2087 15.86 4.1913 27.83 2.93913L36.65 2V6.69565C49.7225 6.69565 60.275 17.1826 60.275 30.1739V33.3043H58.7L52.4 28.6087L49.25 20.7826C49.25 20.7826 42.4582 17.6522 33.5 17.6522C24.5418 17.6522 17.75 20.7826 17.75 20.7826L14.6 28.6087L8.3 33.3043H6.725Z" fill="black" stroke="black" stroke-width="3.13043"/>
<ellipse cx="23.2625" cy="38.7826" rx="3.9375" ry="3.91304" fill="black"/>
<ellipse cx="43.7375" cy="38.7826" rx="3.9375" ry="3.91304" fill="black"/>
<path d="M42.95 53.2174L42.635 53.8435C40.9025 57.287 37.4375 59.4783 33.5 59.4783V59.4783C29.5625 59.4783 26.0975 57.287 24.365 53.8435L24.05 53.2174" stroke="black" stroke-width="3.13043"/>
<path d="M8.3 33.3044L14.6 28.6087L17.75 20.7827C22.79 18.5914 28.145 17.6522 33.5 17.6522C38.855 17.6522 44.21 18.5914 49.25 20.7827L52.4 28.6087L58.7 33.3044" stroke="black" stroke-width="3.13043"/>
<path d="M9.875 42.6956V37.2174C9.875 35.0261 8.1425 33.3043 5.9375 33.3043C3.7325 33.3043 2 35.0261 2 37.2174V41.1304C2 45.513 5.465 48.9565 9.875 48.9565C9.875 54.9043 12.395 60.6956 16.9625 64.6087L22.79 69.6174C25.625 72.4348 29.405 74 33.5 74C37.595 74 41.375 72.4348 44.21 69.6174L50.0375 64.6087C54.605 60.6956 57.125 54.9043 57.125 48.9565C61.535 48.9565 65 45.513 65 41.1304V37.2174C65 35.0261 63.2675 33.3043 61.0625 33.3043C58.8575 33.3043 57.125 35.0261 57.125 37.2174V42.6956" stroke="black" stroke-width="3.13043"/>
</svg>
