<svg width="75" height="75" viewBox="0 0 75 75" fill="none" xmlns="http://www.w3.org/2000/svg">
<path fill-rule="evenodd" clip-rule="evenodd" d="M29.1435 0V12.2558V0Z" fill="white"/>
<path d="M29.1435 0V12.2558" stroke="white" stroke-width="3.06395"/>
<path fill-rule="evenodd" clip-rule="evenodd" d="M12.271 29.1075H0H12.271Z" fill="white"/>
<path d="M12.271 29.1075H0" stroke="white" stroke-width="3.06395"/>
<path fill-rule="evenodd" clip-rule="evenodd" d="M51.0779 7.20032L42.4882 15.7794L51.0779 7.20032Z" fill="white"/>
<path d="M51.0779 7.20032L42.4882 15.7794" stroke="white" stroke-width="3.06395"/>
<path fill-rule="evenodd" clip-rule="evenodd" d="M15.7988 42.4357L7.20917 51.0147L15.7988 42.4357Z" fill="white"/>
<path d="M15.7988 42.4357L7.20917 51.0147" stroke="white" stroke-width="3.06395"/>
<path fill-rule="evenodd" clip-rule="evenodd" d="M15.7988 15.7794L7.20917 7.20032L15.7988 15.7794Z" fill="white"/>
<path d="M15.7988 15.7794L7.20917 7.20032" stroke="white" stroke-width="3.06395"/>
<path fill-rule="evenodd" clip-rule="evenodd" d="M24.2776 30.8362L30.7852 24.3366L72 65.5005L65.4924 72L24.2776 30.8362Z" stroke="white" stroke-width="3.06392"/>
<path fill-rule="evenodd" clip-rule="evenodd" d="M34.3582 40.9167L40.8648 34.4162L72 65.5004L65.4934 72.0009L34.3582 40.9167Z" fill="white" stroke="white" stroke-width="3.06392"/>
</svg>
