<svg width="24" height="24" viewBox="0 0 24 24" fill="none" xmlns="http://www.w3.org/2000/svg">
<path fill-rule="evenodd" clip-rule="evenodd" d="M6.27259 17.7277C5.06344 16.5185 5.06344 14.5528 6.27259 13.3436L9.10102 10.5152L7.75752 9.17168L4.92909 12.0001C2.97747 13.9517 2.97747 17.1196 4.92909 19.0712C6.8807 21.0228 10.0485 21.0228 12.0002 19.0712L14.8286 16.2428L13.4851 14.8992L10.6567 17.7277C9.4475 18.9368 7.48174 18.9368 6.27259 17.7277ZM9.87884 15.5356L15.5357 9.87879L14.1215 8.46458L8.46462 14.1214L9.87884 15.5356ZM12.0002 4.92904L9.17173 7.75747L10.5152 9.10097L13.3437 6.27255C14.5528 5.06339 16.5186 5.06339 17.7277 6.27255C18.9369 7.4817 18.9369 9.44746 17.7277 10.6566L14.8993 13.485L16.2428 14.8285L19.0712 12.0001C21.0228 10.0485 21.0228 6.88066 19.0712 4.92904C17.1196 2.97743 13.9518 2.97743 12.0002 4.92904Z" fill="#404040"/>
</svg>
