<svg width="24" height="24" viewBox="0 0 24 24" fill="none" xmlns="http://www.w3.org/2000/svg">
<circle cx="12" cy="12" r="12" fill="#0976B4"/>
<path fill-rule="evenodd" clip-rule="evenodd" d="M7.32524 8.90336C8.15137 8.90336 8.8211 8.2926 8.8211 7.53835C8.8211 6.78344 8.15137 6.17188 7.32524 6.17188C6.4983 6.17188 5.82857 6.78344 5.82857 7.53835C5.82857 8.2926 6.4983 8.90336 7.32524 8.90336Z" fill="white"/>
<path fill-rule="evenodd" clip-rule="evenodd" d="M6.17143 17.6833H8.85543V9.94238H6.17143V17.6833Z" fill="white"/>
<path fill-rule="evenodd" clip-rule="evenodd" d="M12.6225 13.378C12.6225 12.4903 13.0425 11.6222 14.0467 11.6222C15.051 11.6222 15.2979 12.4903 15.2979 13.3568V17.5845H17.9699V13.184C17.9699 10.1267 16.1627 9.59961 15.051 9.59961C13.9402 9.59961 13.3275 9.97533 12.6225 10.8857V9.84359H9.94286V17.5845H12.6225V13.378Z" fill="white"/>
</svg>
