<svg width="107" height="22" viewBox="0 0 107 22" fill="none" xmlns="http://www.w3.org/2000/svg">
<path fill-rule="evenodd" clip-rule="evenodd" d="M38.168 2.48047L43.28 13.3525H44.144V20.0005H48.008V13.3525H48.872L53.576 2.48047H49.76L46.5359 10.4005H45.7745L42.2 2.48047H38.168Z" fill="black"/>
<path fill-rule="evenodd" clip-rule="evenodd" d="M57.112 19.9166C58.008 20.2766 59.032 20.4566 60.184 20.4566C61.352 20.4566 62.384 20.2766 63.28 19.9166C64.176 19.5566 64.932 19.0646 65.548 18.4406C66.164 17.8166 66.632 17.1006 66.952 16.2926C67.272 15.4846 67.432 14.6326 67.432 13.7366V13.1846C67.432 12.2726 67.264 11.4046 66.928 10.5806C66.592 9.75658 66.112 9.03258 65.488 8.40858C64.864 7.78458 64.108 7.29258 63.22 6.93258C62.332 6.57258 61.32 6.39258 60.184 6.39258C59.08 6.39258 58.08 6.57258 57.184 6.93258C56.288 7.29258 55.524 7.78458 54.892 8.40858C54.26 9.03258 53.78 9.75658 53.452 10.5806C53.124 11.4046 52.96 12.2726 52.96 13.1846V13.7366C52.96 14.6326 53.12 15.4846 53.44 16.2926C53.76 17.1006 54.228 17.8166 54.844 18.4406C55.46 19.0646 56.216 19.5566 57.112 19.9166ZM62.056 16.7366C61.56 17.0566 60.936 17.2166 60.184 17.2166C59.464 17.2166 58.848 17.0566 58.336 16.7366C57.824 16.4166 57.44 15.9686 57.184 15.3926C56.928 14.8166 56.8 14.1766 56.8 13.4726C56.8 12.7206 56.932 12.0606 57.196 11.4926C57.46 10.9246 57.848 10.4726 58.36 10.1366C58.872 9.80058 59.48 9.63258 60.184 9.63258C60.904 9.63258 61.516 9.80058 62.02 10.1366C62.524 10.4726 62.912 10.9246 63.184 11.4926C63.456 12.0606 63.592 12.7206 63.592 13.4726C63.592 14.1766 63.46 14.8166 63.196 15.3926C62.932 15.9686 62.552 16.4166 62.056 16.7366Z" fill="black"/>
<path fill-rule="evenodd" clip-rule="evenodd" d="M73.056 19.9166C73.952 20.2766 74.976 20.4566 76.128 20.4566C77.296 20.4566 78.328 20.2766 79.224 19.9166C80.12 19.5566 80.876 19.0646 81.492 18.4406C82.108 17.8166 82.576 17.1006 82.896 16.2926C83.216 15.4846 83.376 14.6326 83.376 13.7366V13.1846C83.376 12.2726 83.208 11.4046 82.872 10.5806C82.536 9.75658 82.056 9.03258 81.432 8.40858C80.808 7.78458 80.052 7.29258 79.164 6.93258C78.276 6.57258 77.264 6.39258 76.128 6.39258C75.024 6.39258 74.024 6.57258 73.128 6.93258C72.232 7.29258 71.468 7.78458 70.836 8.40858C70.204 9.03258 69.724 9.75658 69.396 10.5806C69.068 11.4046 68.904 12.2726 68.904 13.1846V13.7366C68.904 14.6326 69.064 15.4846 69.384 16.2926C69.704 17.1006 70.172 17.8166 70.788 18.4406C71.404 19.0646 72.16 19.5566 73.056 19.9166ZM78 16.7366C77.504 17.0566 76.88 17.2166 76.128 17.2166C75.408 17.2166 74.792 17.0566 74.28 16.7366C73.768 16.4166 73.384 15.9686 73.128 15.3926C72.872 14.8166 72.744 14.1766 72.744 13.4726C72.744 12.7206 72.876 12.0606 73.14 11.4926C73.404 10.9246 73.792 10.4726 74.304 10.1366C74.816 9.80058 75.424 9.63258 76.128 9.63258C76.848 9.63258 77.46 9.80058 77.964 10.1366C78.468 10.4726 78.856 10.9246 79.128 11.4926C79.4 12.0606 79.536 12.7206 79.536 13.4726C79.536 14.1766 79.404 14.8166 79.14 15.3926C78.876 15.9686 78.496 16.4166 78 16.7366Z" fill="black"/>
<path d="M85.664 20.0007V6.84866H88.712V12.4887H88.64C88.64 10.6327 89.036 9.20066 89.828 8.19266C90.62 7.18466 91.768 6.68066 93.272 6.68066H93.776V9.99266H92.816C91.76 9.99266 90.944 10.2767 90.368 10.8447C89.792 11.4127 89.504 12.2327 89.504 13.3047V20.0007H85.664Z" fill="black"/>
<path fill-rule="evenodd" clip-rule="evenodd" d="M103.24 17.4788V20.0008H106.288V11.9368C106.288 10.7208 106.048 9.72481 105.568 8.94881C105.088 8.17281 104.388 7.59281 103.468 7.20881C102.548 6.82481 101.416 6.63281 100.072 6.63281C99.608 6.63281 99.112 6.64081 98.584 6.65681C98.056 6.67281 97.544 6.69681 97.048 6.72881C96.552 6.76081 96.12 6.79281 95.752 6.82481V10.0648C96.248 10.0328 96.8 10.0008 97.408 9.96881C98.016 9.93681 98.608 9.91281 99.184 9.89681C99.76 9.88081 100.224 9.87281 100.576 9.87281C101.28 9.87281 101.792 10.0408 102.112 10.3768C102.432 10.7128 102.592 11.2168 102.592 11.8888V11.9368H100.216C99.048 11.9368 98.016 12.0848 97.12 12.3808C96.224 12.6768 95.528 13.1328 95.032 13.7488C94.536 14.3648 94.288 15.1528 94.288 16.1128C94.288 16.9928 94.488 17.7488 94.888 18.3808C95.288 19.0128 95.844 19.4968 96.556 19.8328C97.268 20.1688 98.096 20.3368 99.04 20.3368C99.952 20.3368 100.724 20.1688 101.356 19.8328C101.988 19.4968 102.484 19.0168 102.844 18.3928C103.003 18.1164 103.135 17.8117 103.24 17.4788ZM102.592 15.1288V14.0728H100.192C99.52 14.0728 99.004 14.2368 98.644 14.5648C98.284 14.8928 98.104 15.3368 98.104 15.8968C98.104 16.4248 98.284 16.8528 98.644 17.1808C99.004 17.5088 99.52 17.6728 100.192 17.6728C100.624 17.6728 101.012 17.5968 101.356 17.4448C101.7 17.2928 101.984 17.0328 102.208 16.6648C102.432 16.2968 102.56 15.7848 102.592 15.1288Z" fill="black"/>
<rect x="24" y="14" width="8" height="24" transform="rotate(90 24 14)" fill="#004050"/>
<path d="M12 12C5.37258 12 0 6.62742 0 0L24 0C24 6.62742 18.6274 12 12 12Z" fill="#00D565"/>
</svg>
