<svg width="24" height="24" viewBox="0 0 24 24" fill="none" xmlns="http://www.w3.org/2000/svg">
<circle cx="12" cy="12" r="12" fill="#55ACEE"/>
<path fill-rule="evenodd" clip-rule="evenodd" d="M17.4967 7.41041C17.158 7.62736 16.3804 7.94263 15.9969 7.94263V7.94327C15.5589 7.4858 14.9424 7.2002 14.2586 7.2002C12.9306 7.2002 11.8538 8.27706 11.8538 9.60455C11.8538 9.78899 11.8751 9.9689 11.9146 10.1414H11.9143C10.1128 10.0941 8.14266 9.19124 6.95661 7.64589C6.22739 8.9081 6.85843 10.3119 7.68595 10.8234C7.40269 10.8447 6.88122 10.7907 6.63578 10.5512C6.61933 11.389 7.02214 12.499 8.49094 12.9017C8.20806 13.0539 7.70733 13.0102 7.4896 12.9779C7.56602 13.6851 8.55635 14.6096 9.6393 14.6096C9.25332 15.0561 7.8011 15.8659 6.17143 15.6082C7.27821 16.2816 8.56814 16.6716 9.93345 16.6716C13.8133 16.6716 16.8264 13.5272 16.6643 9.64807C16.6636 9.64379 16.6636 9.63952 16.6632 9.63485C16.6636 9.62488 16.6643 9.61491 16.6643 9.60455C16.6643 9.5925 16.6632 9.5811 16.6629 9.56944C17.0161 9.32788 17.49 8.90058 17.8286 8.33819C17.6322 8.44634 17.0431 8.66291 16.495 8.71666C16.8468 8.52678 17.368 7.90493 17.4967 7.41041Z" fill="white"/>
</svg>
