<svg width="41" height="42" viewBox="0 0 41 42" fill="none" xmlns="http://www.w3.org/2000/svg">
<ellipse cx="20.1289" cy="21.1825" rx="20.1289" ry="20.5854" fill="#EDFFFC"/>
<path d="M25.1609 10.8899H15.0964C12.3172 10.8899 10.0642 13.194 10.0642 16.0362V26.3289C10.0642 29.1712 12.3172 31.4753 15.0964 31.4753H25.1609C27.9401 31.4753 30.1931 29.1712 30.1931 26.3289V16.0362C30.1931 13.194 27.9401 10.8899 25.1609 10.8899Z" stroke="#02897A" stroke-width="2" stroke-linecap="round" stroke-linejoin="round"/>
<path d="M24.1548 20.5342C24.279 21.3908 24.1359 22.2656 23.7459 23.0343C23.3559 23.8029 22.7388 24.4263 21.9825 24.8156C21.2261 25.2049 20.369 25.3404 19.5329 25.2029C18.6969 25.0653 17.9246 24.6616 17.3259 24.0493C16.7271 23.437 16.3324 22.6471 16.1979 21.7922C16.0633 20.9372 16.1958 20.0606 16.5765 19.2871C16.9572 18.5136 17.5667 17.8825 18.3184 17.4837C19.07 17.0848 19.9254 16.9385 20.763 17.0655C21.6174 17.1951 22.4084 17.6023 23.0192 18.2269C23.6299 18.8515 24.0281 19.6604 24.1548 20.5342Z" stroke="#02897A" stroke-width="2" stroke-linecap="round" stroke-linejoin="round"/>
<path d="M25.6643 15.5215H25.6739" stroke="#02897A" stroke-width="2" stroke-linecap="round" stroke-linejoin="round"/>
</svg>
