<svg width="41" height="42" viewBox="0 0 41 42" fill="none" xmlns="http://www.w3.org/2000/svg">
<ellipse cx="20.8511" cy="21.1659" rx="20.1289" ry="20.5854" fill="#EDFFFC"/>
<path d="M31.9213 11.9127C30.9576 12.6079 29.8904 13.1397 28.7611 13.4875C28.155 12.7747 27.3494 12.2695 26.4534 12.0402C25.5573 11.811 24.614 11.8686 23.7511 12.2055C22.8882 12.5423 22.1472 13.1421 21.6284 13.9236C21.1096 14.7051 20.8381 15.6308 20.8504 16.5753V17.6045C19.0818 17.6514 17.3292 17.2503 15.7488 16.4368C14.1684 15.6233 12.8093 14.4227 11.7924 12.942C11.7924 12.942 7.76665 22.2054 16.8247 26.3224C14.7519 27.7613 12.2827 28.4828 9.77954 28.381C18.8376 33.5273 29.9085 28.381 29.9085 16.5444C29.9075 16.2577 29.8806 15.9717 29.8279 15.6901C30.8551 14.6541 31.58 13.3462 31.9213 11.9127V11.9127Z" stroke="#02897A" stroke-width="2" stroke-linecap="round" stroke-linejoin="round"/>
</svg>
